 <svg version="1.0" xmlns="http://www.w3.org/2000/svg"  width="250.000000pt" height="156.000000pt" viewBox="0 0 250.000000 156.000000"  preserveAspectRatio="xMidYMid meet">  <g transform="translate(0.000000,156.000000) scale(0.100000,-0.100000)" fill="#000000" stroke="none"> <path d="M561 1447 c-86 -117 -216 -189 -393 -217 -49 -8 -83 -19 -93 -30 -14 -16 -16 -51 -15 -259 0 -214 3 -248 21 -308 40 -128 102 -224 220 -340 117 -114 286 -233 332 -233 30 0 183 100 275 179 95 82 172 176 221 270 69 134 73 158 79 427 5 286 10 274 -116 294 -171 27 -305 102 -392 217 -56 73 -84 73 -139 0z m133 -52 c87 -101 231 -179 381 -205 39 -7 76 -19 83 -28 15 -20 17 -357 2 -451 -22 -132 -98 -266 -217 -383 -124 -122 -263 -218 -314 -218 -44 0 -203 113 -309 220 -98 98 -143 163 -189 272 -25 61 -26 69 -29 309 -3 193 0 248 10 256 7 6 47 18 88 26 159 33 269 92 360 195 30 34 62 62 71 62 8 0 37 -25 63 -55z"/> <path d="M555 1310 c-76 -64 -170 -113 -280 -145 -131 -38 -129 -34 -133 -221 -2 -88 2 -186 8 -225 22 -132 106 -267 241 -393 77 -71 211 -166 235 -166 77 0 342 237 420 376 62 112 74 171 74 380 0 219 2 216 -114 244 -107 27 -210 78 -291 145 -37 30 -75 55 -84 55 -9 0 -43 -22 -76 -50z m278 -130 c45 -22 114 -47 152 -56 39 -9 76 -18 83 -20 11 -3 13 -44 10 -212 -4 -230 -9 -252 -84 -370 -48 -75 -180 -204 -278 -271 l-79 -54 -41 22 c-68 36 -215 160 -271 228 -70 85 -113 167 -130 250 -19 89 -21 402 -2 407 6 2 44 10 82 19 96 23 239 95 305 155 l55 49 58 -53 c33 -31 92 -70 140 -94z"/> <path d="M580 1081 c0 -41 -19 -74 -97 -170 -75 -92 -97 -144 -98 -231 0 -63 5 -84 29 -134 16 -33 35 -67 42 -75 7 -9 22 -27 33 -41 28 -35 44 -17 30 34 -15 53 2 115 52 192 21 33 39 70 39 82 0 76 67 -52 76 -146 6 -54 8 -60 20 -44 7 9 14 25 14 35 0 9 4 17 9 17 14 0 24 -84 17 -141 -8 -62 7 -65 49 -7 54 76 74 118 86 181 13 76 6 126 -28 189 -30 55 -44 57 -54 9 -4 -18 -14 -40 -23 -49 -15 -15 -16 -13 -16 19 0 79 -55 211 -117 279 -46 51 -63 52 -63 1z m95 -116 c14 -30 31 -80 39 -112 7 -33 19 -69 25 -81 14 -25 43 -29 61 -7 19 23 27 18 40 -21 14 -41 7 -112 -17 -166 -19 -46 -27 -47 -43 -9 -6 16 -21 38 -32 48 -11 10 -33 46 -48 80 -31 67 -71 103 -94 84 -17 -14 -99 -154 -120 -204 -9 -21 -20 -36 -25 -33 -5 4 -17 29 -26 57 -32 96 -9 175 85 294 26 33 59 79 74 103 32 52 42 47 81 -33z"/> <path d="M1475 830 l0 -126 28 4 c25 4 27 7 27 53 l0 49 55 0 55 0 0 -50 c0 -48 1 -50 28 -50 l27 0 0 120 0 120 -27 0 c-26 0 -28 -3 -28 -45 l0 -45 -55 0 -55 0 0 44 c0 40 -2 44 -27 48 l-28 4 0 -126z m195 3 c0 -35 -1 -36 -19 -19 -18 16 -18 19 -3 37 9 10 18 19 19 19 2 0 3 -16 3 -37z m-135 8 c7 -12 -12 -24 -25 -16 -11 7 -4 25 10 25 5 0 11 -4 15 -9z"/> <path d="M1750 831 l0 -119 80 -4 c80 -3 80 -3 80 22 0 24 -2 25 -55 22 l-55 -4 0 37 0 37 53 -4 c47 -3 52 -1 52 17 0 18 -5 20 -52 17 l-53 -4 0 31 c0 31 0 31 55 31 48 0 55 2 55 20 0 18 -7 20 -80 20 l-80 0 0 -119z"/> <path d="M1960 831 l0 -121 55 0 c107 0 161 43 153 122 -7 64 -23 102 -39 92 -4 -2 -11 2 -17 9 -6 7 -40 14 -81 15 l-71 3 0 -120z m140 49 c42 -42 15 -112 -47 -124 l-33 -5 0 74 0 75 30 0 c17 0 39 -9 50 -20z"/> <path d="M2244 827 l-62 -123 33 4 c23 3 36 11 44 28 9 20 18 24 51 24 33 0 42 -4 52 -25 9 -20 18 -25 47 -25 20 0 31 4 25 8 -13 8 -97 172 -89 172 3 0 1 6 -5 13 -6 6 -16 20 -23 30 -11 15 -20 2 -73 -106z m83 4 c13 -34 9 -41 -24 -41 -26 0 -28 8 -11 45 15 32 21 32 35 -4z"/> </g> </svg> 